##     ## #### ##     ## ########          ######  ##     ##  #######  
##     ##  ##  ##     ## ##               ##    ## ###   ### ##     ##
##     ##  ##  ##     ## ##               ##       #### #### ##     ##
#########  ##  ##     ## ######   ####### ##       ## ### ##  #######  
##     ##  ##   ##   ##  ##               ##       ##     ## ##     ##
##     ##  ##    ## ##   ##               ##    ## ##     ## ##     ##
##     ## ####    ###    ########          ######  ##     ##  #######  

###########  Thx Hive - CM8 Doing It Right The First Time  ###########



Slasher.House.2012.DVDRip.XVID.AC3.HQ.Hive-CM8


Source: DVD

Video.: 720x240 @bitrate 1300 2pass
Audio.: English AC3 2.0 Stereo
Bonus.: Yes, bloopers in add'l avi file
Sample: Yes, included


IMDb..: http://www.imdb.com/title/tt2375454/


ENCODE
got this new independant slasher movie, looks like b-movie type, but has good reviews
up to you, check trailer first or movie site: http://slasherhouse.webs.com/

quality of the dvd was ok, colours of movie are like in the sample
so just a straight forward encode
got nice
enjoy


General
Complete name                  : Slasher.House.2012.DVDRip.XVID.AC3.HQ.Hive-CM8.avi
Format                         : AVI
Format/Info                    : Audio Video Interleave
File size                      : 959 MiB
Duration                       : 1h 28mn
Overall bit rate               : 1 523 Kbps
Writing application            : Nandub v1.0rc2
Writing library                : Nandub build 1853/release

Video
ID                             : 0
Format                         : MPEG-4 Visual
Format profile                 : Advanced Simple@L5
Format settings, BVOP          : 2
Format settings, QPel          : Yes
Format settings, GMC           : No warppoints
Format settings, Matrix        : Default (H.263)
Muxing mode                    : Packed bitstream
Codec ID                       : XVID
Codec ID/Hint                  : XviD
Duration                       : 1h 28mn
Bit rate                       : 1 322 Kbps
Width                          : 720 pixels
Height                         : 240 pixels
Display aspect ratio           : 3.000
Frame rate                     : 25.000 fps
Color space                    : YUV
Chroma subsampling             : 4:2:0
Bit depth                      : 8 bits
Scan type                      : Progressive
Compression mode               : Lossy
Bits/(Pixel*Frame)             : 0.306
Stream size                    : 832 MiB (87%)
Writing library                : XviD 1.2.1 (UTC 2008-12-04)

Audio
ID                             : 1
Format                         : AC-3
Format/Info                    : Audio Coding 3
Mode extension                 : CM (complete main)
Format settings, Endianness    : Big
Codec ID                       : 2000
Duration                       : 1h 28mn
Bit rate mode                  : Constant
Bit rate                       : 192 Kbps
Channel(s)                     : 2 channels
Channel positions              : Front: L R
Sampling rate                  : 48.0 KHz
Bit depth                      : 16 bits
Compression mode               : Lossy
Stream size                    : 121 MiB (13%)
Alignment                      : Split accross interleaves
Interleave, duration           : 40 ms (1.00 video frame)
Interleave, preload duration   : 500 ms


PLOT
When RED awakens in a prison cell within an old abandoned Madhouse, she has no idea
how she got there and why she has been placed there. As her cell door opens she soon
discovers that sheΓÇÖs not alone. Trapped with the worlds most notorious serial killers
she finds herself caught in a deadly game with no escape, as one by one the other
ΓÇÿinmatesΓÇÖ are released to stalk her as their own prey.


CAST
Eleanor James         ...    Red / Felissa Harley
Adam Williams         ...    Nathan Robbins
Wellington Grosvenor  ...    Charlie Corben


Screens:
 
http://i.imgur.com/deWwT7u.png 
http://i.imgur.com/vorvNiW.png 
http://i.imgur.com/rmiPo73.png 
http://i.imgur.com/s53Gxm7.png 
http://i.imgur.com/UAMdvRR.png
